<svg xmlns="http://www.w3.org/2000/svg" xmlns:xlink="http://www.w3.org/1999/xlink" version="1.1" id="Capa_1" x="0px"
	y="0px" viewBox="0 0 624.7 179" style="enable-background:new 0 0 624.7 179;">
	<style type="text/css">
		.st0 {
			fill: white;
		}
	</style>
	<g>
		<path class="st0"
			d="M110.4,21.3C51.8,21.3,4.3,52.5,4.3,90.8c0,1,0,3.7,0,4.1c0,40.6,41.5,73.4,106.1,73.4&#10;  c65,0,106.1-32.8,106.1-73.4c0-1.4,0-2.2,0-4.1C216.5,52.5,169,21.3,110.4,21.3z M110.4,156c-56.4,0-102-29.2-102-65.3&#10;  c0-36.1,45.7-65.3,102-65.3c51.4,0,94,24.4,101,56c0,0,0,0.1,0,0.1c0.7,3,1,6,1,9.1C212.5,126.8,166.8,156,110.4,156z" />
		<path class="st0"
			d="M167.2,97.6c-10.1-8.8-33.3-29-39.6-33.7c-3.6-2.7-6.1-4.1-8.2-4.8c-1-0.3-2.3-0.6-4-0.6&#10;  c-1.6,0-3.3,0.3-5.1,0.9c-4.1,1.3-8.1,4.5-12.1,7.6l-0.2,0.2c-3.7,2.9-7.4,5.9-10.3,6.5c-1.2,0.3-2.5,0.4-3.8,0.4&#10;  c-3.2,0-6.1-0.9-7.2-2.3c-0.2-0.2-0.1-0.6,0.4-1.1l0.1-0.1l8.9-9.5c6.9-6.9,13.5-13.5,28.6-13.8c0.3,0,0.5,0,0.8,0&#10;  c9.4,0,18.8,4.2,19.8,4.7c8.8,4.3,17.9,6.5,27,6.5c9.5,0,19.3-2.4,29.7-7.1c-1.2-1-2.4-1.9-3.6-2.8c-9.1,3.9-17.7,5.9-26,5.9&#10;  c-8.5,0-17-2.1-25.3-6.1c-0.4-0.2-10.8-5.1-21.6-5.1c-0.3,0-0.6,0-0.9,0c-12.7,0.3-19.8,4.8-24.6,8.7c-4.7,0.1-8.7,1.2-12.3,2.2&#10;  c-3.2,0.9-6,1.7-8.7,1.7c-1.1,0-3.1-0.1-3.3-0.1c-3.1-0.1-18.7-3.9-31.1-8.6c-1.3,0.9-2.5,1.8-3.7,2.8c13,5.3,28.7,9.4,33.7,9.7&#10;  c1.4,0.1,2.9,0.2,4.3,0.3c3.3,0,6.6-0.9,9.8-1.8c1.9-0.5,4-1.1,6.1-1.5c-0.6,0.6-1.2,1.2-1.7,1.7l-9,9.7c-0.7,0.7-2.2,2.6-1.2,5&#10;  c0.4,0.9,1.2,1.9,2.4,2.6c2.1,1.4,6,2.4,9.6,2.4c1.4,0,2.6-0.1,3.8-0.4c3.8-0.8,7.7-4,11.9-7.3c3.3-2.7,8.1-6,11.7-7&#10;  c1-0.3,2.3-0.4,3.3-0.4c0.3,0,0.6,0,0.8,0c2.4,0.3,4.7,1.1,8.9,4.2c7.4,5.5,40.1,34.1,40.4,34.4c0,0,2.1,1.8,2,4.8&#10;  c-0.1,1.7-1,3.1-2.6,4.2c-1.4,0.9-2.8,1.3-4.3,1.3c-2.2,0-3.7-1-3.8-1.1c-0.1-0.1-11.3-10.4-15.4-13.8c-0.7-0.5-1.3-1-1.9-1&#10;  c-0.3,0-0.6,0.1-0.9,0.4c-0.6,0.8,0.1,1.9,0.9,2.6l13.1,13.1c0,0,1.6,1.5,1.8,3.5c0.1,2.2-0.9,4-3.1,5.4c-1.5,1-3.1,1.5-4.6,1.5&#10;  c-2,0-3.4-0.9-3.7-1.1l-1.9-1.8c-3.4-3.4-7-6.9-9.6-9c-0.6-0.5-1.3-1-2-1c-0.3,0-0.6,0.1-0.8,0.3c-0.3,0.3-0.5,0.9,0.2,1.9&#10;  c0.3,0.4,0.7,0.7,0.7,0.7l9.5,10.7c0.1,0.1,2,2.3,0.2,4.6l-0.3,0.4c-0.3,0.3-0.6,0.6-0.9,0.9c-1.6,1.3-3.8,1.5-4.7,1.5&#10;  c-0.5,0-0.9,0-1.3-0.1c-0.9-0.2-1.6-0.4-1.9-0.8l-0.1-0.1c-0.5-0.5-5.3-5.5-9.3-8.8c-0.5-0.4-1.2-1-1.9-1c-0.3,0-0.6,0.1-0.9,0.4&#10;  c-0.8,0.9,0.4,2.2,0.9,2.6l8.1,9c0,0.1-0.1,0.3-0.3,0.6c-0.3,0.4-1.3,1.4-4.2,1.8c-0.4,0-0.7,0.1-1.1,0.1c-3,0-6.3-1.5-8-2.4&#10;  c0.8-1.6,1.2-3.4,1.2-5.2c0-6.7-5.4-12.1-12.1-12.2c-0.1,0-0.3,0-0.4,0c0.2-3.1-0.2-8.9-6.2-11.4c-1.7-0.7-3.4-1.1-5.1-1.1&#10;  c-1.3,0-2.5,0.2-3.7,0.7c-1.2-2.4-3.3-4.1-5.9-5c-1.5-0.5-2.9-0.8-4.4-0.8c-2.5,0-4.8,0.7-6.8,2.2c-1.9-2.4-4.9-3.9-8-3.9&#10;  c-2.7,0-5.3,1.1-7.3,3c-2.5-1.9-12.6-8.3-39.5-14.4c-1.3-0.3-4.3-1.2-6.1-1.7c-0.3,1.5-0.5,2.9-0.7,4.4c0,0,5,1.2,5.9,1.4&#10;  c27.5,6.1,36.6,12.5,38.1,13.7c-0.5,1.2-0.8,2.6-0.8,4c0,5.7,4.6,10.3,10.3,10.3c0.6,0,1.3-0.1,1.9-0.2c0.9,4.2,3.6,7.3,7.8,9&#10;  c1.2,0.5,2.5,0.7,3.7,0.7c0.8,0,1.6-0.1,2.3-0.3c0.8,2,2.5,4.4,6.4,6c1.4,0.5,2.7,0.8,4,0.8c1.1,0,2.1-0.2,3.1-0.6&#10;  c1.9,4.5,6.3,7.5,11.2,7.5c3.3,0,6.4-1.3,8.7-3.7c2,1.1,6.1,3.1,10.3,3.1c0.5,0,1.1,0,1.6-0.1c4.2-0.5,6.1-2.1,7-3.4&#10;  c0.2-0.2,0.3-0.5,0.4-0.7c1,0.3,2.1,0.5,3.3,0.5c2.3,0,4.4-0.8,6.6-2.4c2.2-1.6,3.7-3.8,3.9-5.7c0,0,0-0.1,0-0.1&#10;  c0.7,0.2,1.5,0.2,2.2,0.2c2.3,0,4.6-0.7,6.8-2.2c4.2-2.8,5-6.4,4.9-8.8c0.7,0.2,1.5,0.2,2.2,0.2c2.2,0,4.3-0.7,6.4-2&#10;  c2.6-1.7,4.2-4.2,4.4-7.2c0.2-2-0.3-4.1-1.4-5.8c7.1-3.1,23.3-9,42.4-13.3c-0.1-1.5-0.3-2.9-0.6-4.4&#10;  C188.7,88.2,171.5,95.6,167.2,97.6z M102.6,134.9c-4.5,0-8.1-3.5-8.3-7.9c0-0.4-0.1-1.4-0.9-1.4c-0.4,0-0.7,0.2-1,0.5&#10;  c-1,0.9-2.2,1.8-4.1,1.8c-0.8,0-1.7-0.2-2.7-0.6c-4.7-1.9-4.8-5.2-4.6-6.5c0.1-0.4,0.1-0.7-0.2-1l-0.3-0.3h-0.3&#10;  c-0.2,0-0.5,0.1-0.8,0.3c-1.4,1-2.7,1.4-4,1.4c-0.7,0-1.5-0.1-2.2-0.4c-6.2-2.4-5.7-8.3-5.4-10.1c0-0.4,0-0.6-0.3-0.8l-0.4-0.4&#10;  l-0.4,0.4c-1.2,1.2-2.8,1.8-4.5,1.8c-3.6,0-6.5-2.9-6.5-6.5c0-3.6,2.9-6.5,6.5-6.5c3.2,0,6,2.4,6.4,5.7l0.2,1.7l1-1.5&#10;  c0.1-0.2,2.7-4.1,7.5-4.1c0.9,0,1.9,0.1,2.8,0.4c3.8,1.2,4.5,4.6,4.6,6.1c0.1,0.8,0.7,0.9,0.8,0.9c0.3,0,0.6-0.2,0.7-0.4&#10;  c0.7-0.8,2.3-2,4.8-2c1.1,0,2.3,0.3,3.6,0.8c6.1,2.6,3.3,10.4,3.3,10.4c-0.5,1.3-0.5,1.8-0.1,2.2l0.2,0.1h0.2&#10;  c0.3,0,0.6-0.1,1.2-0.3c0.8-0.3,2.1-0.7,3.3-0.7h0c4.6,0.1,8.3,3.8,8.3,8.3C110.9,131.2,107.2,134.9,102.6,134.9z" />
	</g>
	<path class="st0"
		d="M259.2,52.5v31.2h-12.5V55c0-13.9,7-20.9,21-20.9c6.3,0,11.1,1.4,14.6,4.2c3.5-2.7,8.3-4,14.6-4&#10; c13.9,0,20.9,6.9,20.8,20.9v28.7h-6.4c-4.1-0.3-6.1-2.2-6.1-6.1V52.7c-0.3-5.1-3-7.6-8.5-7.6c-5.4,0-8.2,2.5-8.3,7.6v31H276V52.5&#10; c-0.3-5.1-3-7.6-8.5-7.6C262.1,44.9,259.3,47.4,259.2,52.5z" />
	<path class="st0"
		d="M377.9,58.7c0.4-15.8,8.2-24.6,24.5-24.6h3.7v12.7l-5.7,0.1c-6.8,0-10.1,4.4-10.1,11.5v25.4h-12.5V58.7z" />
	<path class="st0"
		d="M474.9,49.4l-11.4,0c0.4-9.4,5.2-15.7,19.1-15.7c13.5,0,20.3,4.4,20.6,13.5v16.6c0,13.5-8.1,19.5-21.3,20.4&#10; c-11.7,0.9-19.9-4.5-19.9-15.3c0.3-11.7,8.8-14.9,21.1-16.1c5.3-0.6,7.9-2.2,7.9-4.9c-0.3-2.8-2.9-4.1-7.9-4.2&#10; C477.4,43.7,475.6,47.1,474.9,49.4z M491.3,63.2v-4c-2.9,1.2-6.2,1.7-9.8,2.4c-4.9,0.9-7.4,3.2-7.4,6.8c0.3,3.9,2.3,5.7,6.2,5.7&#10; C487.1,74.2,491.3,70.2,491.3,63.2z" />
	<path class="st0"
		d="M555.9,18.5v44c0,14.7-7.7,22-22.9,21.9c-15.1-0.3-22.7-8.5-22.7-24.8c0-16.6,6.5-25.1,19.5-25.6&#10; c6.1,0,10.8,2.5,13.9,7.6V26.1l0-1.4C547.8,18.7,555.9,18.5,555.9,18.5z M522.9,59.1C522.8,69,526.1,74,533.2,74&#10; c7,0,10.5-5,10.5-14.9c-0.3-9.4-3.7-14-10.3-14C526.7,45.1,523.3,49.7,522.9,59.1z" />
	<path class="st0" d="M337.2,91.3h3.2V156h-12.3V99.2C328.1,97.4,331.9,91.3,337.2,91.3z" />
	<path class="st0"
		d="M404.1,105.7c-6.1,0-10.7,2.5-13.9,7.6l0-21.9h-1.4l0,0c-6.1,0.1-9.3,3.3-10.9,6v-0.4v37.2&#10; c0,14.7,7.7,22,22.9,21.9c15.1-0.3,22.7-8.5,22.7-24.8C423.6,114.7,417.1,106.2,404.1,105.7z M400.5,145.6c-7,0-10.3-5-10.3-14.9&#10; c0.4-9.4,3.8-14,10.4-14c6.6,0,10.1,4.6,10.3,14C411,140.6,407.5,145.6,400.5,145.6z" />
	<g>
		<path class="st0"
			d="M339.6,71.4c2,1.9,4.8,2.9,8.5,2.9c2.6,0,4.9-0.7,6.8-2c1.9-1.3,3.1-2.7,3.5-4.2h11.5&#10;  c-1.8,5.7-4.7,9.8-8.5,12.2c-3.8,2.5-8.4,3.7-13.8,3.7c-3.7,0-7.1-0.6-10.1-1.8s-5.6-2.9-7.6-5.1c-2.1-2.2-3.7-4.8-4.8-7.9&#10;  c-1.1-3.1-1.7-6.4-1.7-10.1c0-3.6,0.6-6.9,1.7-9.9c1.2-3.1,2.8-5.7,5-8c2.1-2.2,4.7-4,7.7-5.3c3-1.3,6.3-1.9,9.9-1.9&#10;  c4.1,0,7.6,0.8,10.6,2.3c3,1.6,5.5,3.7,7.4,6.3c1.9,2.6,3.3,5.6,4.2,9c0.9,3.4,1.2,6.9,0.9,10.6h-34.3&#10;  C336.6,66.5,337.6,69.5,339.6,71.4z M354.4,46.4c-1.6-1.7-3.9-2.6-7.1-2.6c-2.1,0-3.8,0.4-5.2,1.1c-1.4,0.7-2.5,1.6-3.3,2.6&#10;  c-0.8,1-1.4,2.1-1.8,3.3c-0.3,1.2-0.5,2.2-0.6,3.1h21.3C357,50.6,355.9,48.1,354.4,46.4z" />
	</g>
	<g>
		<path class="st0"
			d="M433.8,43.7c-2.1,0-3.9,0.5-5.3,1.4c-1.4,1-2.6,2.2-3.5,3.7c-0.9,1.5-1.5,3.2-1.9,5c-0.4,1.8-0.6,3.6-0.6,5.4&#10;  c0,1.7,0.2,3.5,0.6,5.3c0.4,1.8,1,3.4,1.8,4.9c0.8,1.5,2,2.7,3.4,3.6c1.4,0.9,3.2,1.4,5.2,1.4c3.2,0,5.6-0.9,7.3-2.7&#10;  c1.7-1.8,2.8-4.1,3.2-7.1h12.7c-0.9,6.4-3.3,11.3-7.4,14.6c-4.1,3.3-9.3,5-15.7,5c-3.6,0-6.9-0.6-9.9-1.8c-3-1.2-5.6-2.9-7.7-5.1&#10;  c-2.1-2.2-3.8-4.8-4.9-7.8c-1.2-3-1.8-6.3-1.8-9.9c0-3.7,0.5-7.2,1.6-10.4c1.1-3.2,2.7-6,4.8-8.3c2.1-2.3,4.7-4.1,7.7-5.4&#10;  c3-1.3,6.5-2,10.4-2c2.9,0,5.6,0.4,8.2,1.1c2.6,0.7,5,1.9,7.1,3.4c2.1,1.5,3.8,3.4,5.1,5.7c1.3,2.3,2,4.9,2.2,8h-12.9&#10;  C442.7,46.4,439.4,43.7,433.8,43.7z" />
	</g>
	<g>
		<path class="st0"
			d="M565.3,48.6c1.2-3.1,2.9-5.8,5-8c2.2-2.2,4.8-3.9,7.8-5.1c3-1.2,6.4-1.8,10.2-1.8c3.8,0,7.2,0.6,10.3,1.8&#10;  c3.1,1.2,5.7,2.9,7.9,5.1c2.2,2.2,3.8,4.9,5,8c1.2,3.1,1.8,6.6,1.8,10.5c0,3.8-0.6,7.3-1.8,10.4c-1.2,3.1-2.9,5.8-5,8&#10;  c-2.2,2.2-4.8,3.9-7.9,5.1c-3.1,1.2-6.5,1.8-10.3,1.8c-3.8,0-7.2-0.6-10.2-1.8c-3-1.2-5.6-2.9-7.8-5.1c-2.2-2.2-3.8-4.9-5-8&#10;  c-1.2-3.1-1.8-6.6-1.8-10.4C563.6,55.2,564.2,51.8,565.3,48.6z M577.3,64.7c0.4,1.8,1,3.5,1.9,4.9c0.9,1.5,2.1,2.6,3.6,3.5&#10;  c1.5,0.9,3.3,1.3,5.6,1.3c2.2,0,4.1-0.4,5.6-1.3c1.5-0.9,2.7-2,3.6-3.5c0.9-1.5,1.5-3.1,1.9-4.9c0.4-1.8,0.6-3.7,0.6-5.6&#10;  c0-1.9-0.2-3.8-0.6-5.7c-0.4-1.9-1-3.5-1.9-4.9c-0.9-1.4-2.1-2.6-3.6-3.5c-1.5-0.9-3.4-1.3-5.6-1.3c-2.2,0-4.1,0.5-5.6,1.3&#10;  c-1.5,0.9-2.7,2.1-3.6,3.5c-0.9,1.4-1.5,3.1-1.9,4.9c-0.4,1.9-0.6,3.8-0.6,5.7C576.8,61,577,62.9,577.3,64.7z" />
	</g>
	<path class="st0"
		d="M430.8,130.7c0.4-15.8,8.2-24.6,24.5-24.6h3.7v12.7l-5.7,0.1c-6.8,0-10.1,4.4-10.1,11.5v25.4h-12.5V130.7z" />
	<g>
		<path class="st0"
			d="M478.4,143.4c2,1.9,4.8,2.9,8.5,2.9c2.6,0,4.9-0.7,6.8-2c1.9-1.3,3.1-2.7,3.5-4.2h11.5&#10;  c-1.8,5.7-4.7,9.8-8.5,12.2c-3.8,2.5-8.4,3.7-13.8,3.7c-3.7,0-7.1-0.6-10.1-1.8c-3-1.2-5.6-2.9-7.6-5.1c-2.1-2.2-3.7-4.8-4.8-7.9&#10;  c-1.1-3.1-1.7-6.4-1.7-10.1c0-3.6,0.6-6.9,1.7-9.9c1.2-3.1,2.8-5.7,5-8c2.1-2.2,4.7-4,7.7-5.3c3-1.3,6.3-1.9,9.9-1.9&#10;  c4.1,0,7.6,0.8,10.6,2.3c3,1.6,5.5,3.7,7.4,6.3c1.9,2.6,3.3,5.6,4.2,9c0.9,3.4,1.2,6.9,0.9,10.6h-34.3&#10;  C475.4,138.5,476.5,141.5,478.4,143.4z M493.2,118.4c-1.6-1.7-3.9-2.6-7.1-2.6c-2.1,0-3.8,0.4-5.2,1.1c-1.4,0.7-2.5,1.6-3.3,2.6&#10;  c-0.8,1-1.4,2.1-1.8,3.3c-0.3,1.2-0.5,2.2-0.6,3.1h21.3C495.9,122.6,494.8,120.1,493.2,118.4z" />
	</g>
	<rect x="353.6" y="91.3" class="st0" width="12.3" height="11.2" />
	<rect x="353.6" y="108.1" class="st0" width="12.3" height="47.9" />
	<script xmlns="" />
</svg>
