<?xml version="1.0" encoding="utf-8"?>
<!-- Generator: Adobe Illustrator 27.1.0, SVG Export Plug-In . SVG Version: 6.00 Build 0)  -->
<svg version="1.1" id="Zentricx_Identity" xmlns="http://www.w3.org/2000/svg" xmlns:xlink="http://www.w3.org/1999/xlink" x="0px"
	 y="0px" viewBox="0 0 512 128" style="enable-background:new 0 0 512 128;" xml:space="preserve">
<style type="text/css">
	.st0{fill:#F5F5F5;}
</style>
<g>
	<path class="st0" d="M204.8,52.31c0-5.26-4.33-9.7-9.59-9.7h-25.63c-3.38,0-3.44,2.92-3.44,6.31c0,3.39,0.05,6.22,3.44,6.22h17.09
		l-17.66,18.93c-1.64,1.76-2.57,3.93-2.57,6.39c0,5.26,4.33,9.55,9.59,9.55h25.63c3.39,0,3.63-2.98,3.63-6.37
		c0-3.39-0.24-6.17-3.63-6.17h-17.09l17.65-18.78C203.87,56.94,204.8,54.76,204.8,52.31"/>
	<path class="st0" d="M290.8,42.13c-3.39,0-9.62,0-14.3,5.73c-0.94-2.69-3.98-5.03-7.03-5.03c-3.86,0-6.9,3.04-6.9,6.9v36.92
		c0,3.86,3.39,4.21,7.25,4.21s6.52-0.35,6.52-4.21V61.42c0,0,2.9-6.08,9.68-6.08c2.81,0,6.53,1.41,6.53,5.97v25.65
		c0,3.86,3.02,3.89,6.88,3.89s6.89-0.03,6.89-3.89V57.22C306.3,48.91,299.33,42.13,290.8,42.13"/>
	<path class="st0" d="M341.11,55.15c3.51,0,3.92-2.3,3.92-5.81c0-3.51-0.41-6.73-3.92-6.73h-8.5V29.73c0-1.17-0.83-2.23-2.12-2.23
		c-1.52,0-2.7,1.52-3.28,1.99l-14.03,15.2c-1.05,1.05-1.99,2.83-1.99,4.82c0,3.16,1.52,5.63,4.8,5.63h2.87v15.52
		c0,9.94,2.27,19.96,17.36,19.96h5.73c3.62,0,3.1-3.14,3.1-6.52c0-3.86,0.52-6.62-3.1-6.62h-1.17c-5.38,0-8.16-0.97-8.16-7.4V55.15
		H341.11z"/>
	<path class="st0" d="M397.12,22.74c-3.86,0-6.78,3.04-6.78,6.9c0,3.86,2.92,6.78,6.78,6.78c3.86,0,6.9-2.92,6.9-6.78
		C404.02,25.77,400.98,22.74,397.12,22.74"/>
	<path class="st0" d="M401.19,43.07c-1.15-0.36-2.51-0.61-4.24-0.61c-1.81,0-3.1,0.26-4.37,0.61c-1.5,0.42-2.48,1.63-2.48,3.97
		v37.64c0,5.22,0.07,6.13,6.24,6.13c7.45,0,7.52-0.92,7.52-6.84V47.04C403.86,44.13,402.92,43.6,401.19,43.07"/>
	<path class="st0" d="M450.76,78.33c-0.63-0.99-1.13-1.73-1.59-2.28c-1.49-1.76-2.55-1.41-5.78-0.03c-2.06,0.87-2.83,1.26-4.35,1.45
		l-0.11,0.02c-1,0.14-1.91,0.17-2.74,0.17c-3.98,0-10.88-2.1-10.88-11.81c0-8.31,6.67-10.52,10.88-10.52c2.1,0,4.56,0.23,8.18,1.64
		c0.7,0.35,1.57,0.75,2.34,0.47c2.11-0.77,2.69-2.23,3.95-4.75c1.83-3.67,1.07-5.43-0.56-6.48c-5.96-3.51-11.7-4.09-15.67-4.09
		c-9.36,0-22.92,7.02-22.92,23.86c0,19.18,14.62,24.44,23.15,24.91c3.98,0,9.24-0.12,15.2-3.63c0.55-0.35,1.23-0.73,1.68-1.32
		c1.18-0.95,1.48-2.02,1.27-3.3C452.62,81.55,451.93,80.19,450.76,78.33"/>
	<path class="st0" d="M375.58,43.35c-0.63,0.01-1.16,0.11-1.66,0.28c-0.23,0.07-0.64,0.16-0.64,0.26v0.1
		c-1.53,0.87-3.09,2.13-4.65,3.97c-0.94-2.69-3.54-5.13-6.59-5.13c-3.86,0-6.81,3.04-6.81,6.9v37.23c0,3.86,2.75,3.75,6.61,3.75
		c3.86,0,7.15,0.11,7.15-3.75V63.53c0,0,0-4.43,4.28-6.81v0.04c0-0.08,0.23-0.17,0.36-0.24c0.5-0.25,1.05-0.48,1.65-0.66
		c0.56-0.13,1.17-0.21,1.88-0.21c1.41,0,2.41-0.11,3.15-0.39c1.65-0.66,1.85-2.22,1.85-5.5C382.17,45.43,381.01,43.28,375.58,43.35"
		/>
	<path class="st0" d="M482.02,76.61c-2.8,3.99-5.56,7.87-8.26,11.79c-0.89,1.29-1.94,1.95-3.57,1.89c-3.15-0.1-6.3-0.03-9.46-0.02
		c-0.97,0-1.99,0.11-2.55-0.97c-0.6-1.16,0.05-2.05,0.68-2.91c2.94-3.98,5.9-7.95,8.85-11.92c2.01-2.71,4.02-5.42,6.05-8.16
		c-4.7-6.22-9.35-12.39-14-18.56c-0.17-0.22-0.32-0.45-0.5-0.67c-0.61-0.8-1.29-1.75-0.51-2.61c0.57-0.63,1.6-1.12,2.45-1.16
		c3-0.14,6.03,0,9.04-0.07c2.04-0.05,3.52,0.71,4.65,2.42c2.3,3.46,4.7,6.84,7.14,10.38c2.39-3.38,4.8-6.6,6.97-9.97
		c1.33-2.06,2.98-2.95,5.4-2.85c2.96,0.13,5.94-0.04,8.91,0.08c0.82,0.03,2.13,0.46,2.3,1c0.25,0.78-0.06,2.03-0.59,2.74
		c-4.41,5.95-8.92,11.83-13.41,17.72c-0.34,0.44-0.66,0.89-1.06,1.43c2.47,3.44,4.95,6.88,7.42,10.32c2.35,3.27,4.71,6.53,7.06,9.8
		c0.24,0.34,0.49,0.68,0.67,1.05c0.72,1.52-0.08,2.87-1.75,2.89c-3.43,0.04-6.86,0.02-10.3,0.01c-1.61,0-2.62-0.98-3.48-2.2
		c-2.46-3.47-4.93-6.94-7.39-10.41C482.57,77.33,482.32,77.01,482.02,76.61"/>
	<path class="st0" d="M255.29,63.67c0-12.4-8.07-21.57-21.17-21.57c-13.57,0-22.8,10.89-22.8,24.34c0,13.56,8.07,24.44,22.92,24.44
		c6.2,0,11.46-0.69,14.74-1.63c2.22-0.82,1.86-3.03,1.86-5.83c0-3.39-0.34-6.21-3.73-6.21c-3.51,0.47-7.36,0.84-8.88,0.84
		c-10.76,0-12.05-3.02-13.1-6.99h22.92C252.13,71.05,255.29,67.76,255.29,63.67 M225.11,61.27c0.12-2.76,3.39-6.08,8.07-6.08
		c5.14,0,7.36,2.72,8.3,6.08H225.11z"/>
	<path class="st0" d="M89.56,37.04l-13.51,13.5l-13.49-13.5l8.79-8.79c1.31-1.31,3-1.95,4.7-1.95c1.72,0,3.39,0.64,4.72,1.95
		L89.56,37.04z"/>
	<path class="st0" d="M89.56,76.58L72.93,93.22c-0.01,0-0.01,0.01-0.01,0.01l-8.79,8.78c-2.18,2.18-4.98,3.24-7.84,3.25
		c-2.84-0.01-5.65-1.07-7.84-3.25L23.02,76.58l13.5-13.49l16.64,16.63c0.43,0.43,0.92,0.76,1.46,0.97c0.53,0.23,1.1,0.33,1.66,0.33
		c0.29,0,0.58-0.03,0.85-0.07c0.85-0.16,1.65-0.58,2.29-1.22l16.63-16.63L89.56,76.58z"/>
	<path class="st0" d="M125.97,73.45c0.88,0.88,1.29,1.99,1.29,3.14c0,1.15-0.42,2.26-1.29,3.14l-7.23,7.23
		c-0.87,0.86-1.98,1.29-3.12,1.29c-1.16,0-2.26-0.43-3.14-1.29L98.96,73.45l-1.23-1.24l-15.4-15.4l30.14-30.14
		c0.88-0.86,1.98-1.28,3.14-1.29c1.14,0.01,2.25,0.43,3.12,1.31l7.23,7.21c0.88,0.88,1.29,2,1.29,3.14c0,1.15-0.42,2.26-1.29,3.14
		l-13.5,13.49c-1.74,1.74-1.74,4.54,0,6.28L125.97,73.45z"/>
	<path class="st0" d="M69.79,56.81l-13.51,13.5L39.65,53.67c-1.72-1.72-4.54-1.72-6.28,0L16.74,70.31l-8.79-8.79
		C6.64,60.2,6.02,58.52,6,56.81c0.02-1.71,0.64-3.39,1.95-4.7l25.43-25.44c0.87-0.86,1.98-1.29,3.13-1.29
		c1.16,0,2.26,0.43,3.14,1.29L69.79,56.81z"/>
</g>
</svg>
